<svg width="386" height="434" viewBox="0 0 386 434" fill="none" xmlns="http://www.w3.org/2000/svg">
<path d="M150.776 270.382C155.415 146.282 52.1916 65.7229 0 40.9561C210.506 40.9561 259.025 103.779 256.971 135.191L150.776 270.382Z" fill="#A0D3DA"/>
<path d="M386 99.3086C225.438 15.2219 233.412 227.975 27.9072 285.604C454.139 259.508 240.661 130.841 386 99.3086Z" fill="white"/>
<path d="M101.846 0C140.627 46.1509 205.359 166.506 151.138 272.919C275.818 272.919 463.925 159.474 101.846 0Z" fill="#D9EFFF"/>
<path d="M33.2788 369H47.8582C55.5669 369 60.9294 367.771 63.9459 365.313C67.0181 362.8 68.5543 359.839 68.5543 356.432C68.5543 353.862 67.6885 351.488 65.9568 349.309C64.281 347.131 61.907 345.734 58.8347 345.12C62.8566 342.662 64.8675 339.255 64.8675 334.898C64.8675 331.881 63.6945 329.144 61.3484 326.686C59.0581 324.172 54.9245 322.916 48.9475 322.916H33.2788V369ZM47.4392 330.038C50.9584 330.038 53.4163 330.54 54.8128 331.546C56.2093 332.551 56.9075 334.032 56.9075 335.987C56.9075 337.998 56.1534 339.478 54.6452 340.428C53.1928 341.377 50.7908 341.852 47.4392 341.852H41.4902V330.038H47.4392ZM46.8527 348.723C51.6008 348.723 55.0362 349.309 57.1589 350.482C59.3374 351.6 60.4267 353.275 60.4267 355.51C60.4267 357.912 59.3095 359.56 57.0751 360.453C54.8965 361.347 51.4891 361.794 46.8527 361.794H41.4902V348.807L46.8527 348.723ZM73.8328 369H103.997V361.543H82.0442V322.916H73.8328V369ZM126.547 369.754C132.133 369.754 136.294 368.777 139.032 366.821C141.825 364.866 143.584 362.66 144.31 360.202C145.092 357.744 145.483 355.119 145.483 352.326V322.916H137.272V351.907C137.272 353.359 137.188 354.672 137.021 355.845C136.462 357.856 135.289 359.42 133.501 360.537C131.714 361.599 129.396 362.129 126.547 362.129C123.81 362.129 121.547 361.599 119.76 360.537C117.972 359.42 116.827 357.856 116.324 355.845C116.045 354.56 115.906 353.248 115.906 351.907V322.916H107.778V352.326C107.778 355.119 108.141 357.744 108.867 360.202C109.649 362.66 111.409 364.866 114.146 366.821C116.939 368.777 121.073 369.754 126.547 369.754ZM183.094 369V361.543H161.058V349.309H180.581V341.852H161.058V330.289H183.094V322.916H152.846V369H183.094ZM189.407 369H203.987C211.695 369 217.058 367.771 220.074 365.313C223.146 362.8 224.683 359.839 224.683 356.432C224.683 353.862 223.817 351.488 222.085 349.309C220.409 347.131 218.035 345.734 214.963 345.12C218.985 342.662 220.996 339.255 220.996 334.898C220.996 331.881 219.823 329.144 217.477 326.686C215.186 324.172 211.053 322.916 205.076 322.916H189.407V369ZM203.568 330.038C207.087 330.038 209.545 330.54 210.941 331.546C212.338 332.551 213.036 334.032 213.036 335.987C213.036 337.998 212.282 339.478 210.774 340.428C209.321 341.377 206.919 341.852 203.568 341.852H197.618V330.038H203.568ZM202.981 348.723C207.729 348.723 211.165 349.309 213.287 350.482C215.466 351.6 216.555 353.275 216.555 355.51C216.555 357.912 215.438 359.56 213.203 360.453C211.025 361.347 207.617 361.794 202.981 361.794H197.618V348.807L202.981 348.723ZM229.961 369H238.173V322.916H229.961V369ZM246.164 369H254.375V350.985C256.051 351.097 257.28 351.153 258.062 351.153C259.626 351.153 260.827 351.125 261.665 351.069L272.222 369H281.523L269.96 349.728C276.775 347.438 280.182 343.025 280.182 336.49C280.182 327.44 273.87 322.916 261.246 322.916H246.164V369ZM260.408 330.289C263.983 330.289 266.776 330.736 268.787 331.63C270.854 332.468 271.887 334.143 271.887 336.657C271.887 339.562 270.686 341.489 268.284 342.439C265.938 343.332 262.642 343.779 258.397 343.779C257.112 343.779 255.772 343.695 254.375 343.528V330.289H260.408ZM286.26 369H297.739C300.476 369 302.71 368.944 304.442 368.832C306.229 368.721 308.017 368.469 309.805 368.078C315.726 366.403 319.971 363.442 322.541 359.197C325.166 354.951 326.479 350.063 326.479 344.533C326.479 340.902 325.725 337.467 324.216 334.227C322.708 330.987 320.111 328.306 316.424 326.183C312.793 324.005 307.933 322.916 301.844 322.916H286.26V369ZM302.012 330.289C307.263 330.289 311.257 331.602 313.994 334.227C316.731 336.797 318.1 340.595 318.1 345.623C318.1 347.578 317.904 349.309 317.513 350.818C317.122 352.27 316.647 353.415 316.089 354.253C314.525 357.325 312.318 359.308 309.469 360.202C306.621 361.096 303.409 361.543 299.834 361.543H294.471V330.289H302.012Z" fill="white"/>
<path d="M50.7063 381.207C52.6614 381.207 54.5326 381.43 56.3201 381.877C58.1634 382.268 60.1464 382.882 62.269 383.72L64.9502 376.263L64.0285 375.928C62.0735 375.258 60.0626 374.699 57.9958 374.252C55.9291 373.749 53.4155 373.498 50.455 373.498C46.9918 373.498 43.9475 374.057 41.3222 375.174C38.6968 376.291 36.6859 377.827 35.2895 379.782C33.893 381.737 33.1948 383.971 33.1948 386.485C33.1948 389.334 33.921 391.68 35.3733 393.523C36.8256 395.311 38.5851 396.679 40.6519 397.629C42.7186 398.578 45.344 399.556 48.5279 400.561C51.8794 401.567 54.3092 402.516 55.8174 403.41C57.3255 404.248 58.0517 405.505 57.9958 407.181C57.9958 408.912 57.0742 410.309 55.2308 411.37C53.3875 412.375 50.9577 412.878 47.9414 412.878C44.6457 412.878 40.4564 411.928 35.3733 410.029L34.1165 409.527L31.3515 416.984L32.4407 417.486C35.3453 418.604 37.8869 419.441 40.0654 420C42.2438 420.503 44.6457 420.754 47.2711 420.754C51.7397 420.754 55.3984 420.112 58.2472 418.827C61.1518 417.486 63.2465 415.811 64.5312 413.8C65.816 411.733 66.4583 409.527 66.4583 407.181C66.4583 404.332 65.7042 401.986 64.1961 400.142C62.6879 398.299 60.8725 396.903 58.7499 395.953C56.6832 395.003 54.0299 394.026 50.7901 393.021C47.6062 392.015 45.2602 391.093 43.752 390.256C42.2997 389.418 41.5735 388.273 41.5735 386.82C41.5735 385.089 42.3835 383.72 44.0034 382.715C45.6232 381.709 47.8576 381.207 50.7063 381.207ZM102.769 420V412.543H80.7332V400.31H100.256V392.853H80.7332V381.29H102.769V373.917H72.5221V420H102.769ZM128.353 394.277V401.567H140.418V411.37C139.301 411.984 138.156 412.431 136.983 412.711C135.866 412.99 134.413 413.129 132.626 413.129C129.33 413.129 126.37 412.431 123.745 411.035C121.175 409.582 119.136 407.599 117.628 405.086C116.176 402.572 115.45 399.751 115.45 396.623C115.45 393.495 116.204 390.758 117.712 388.412C119.22 386.01 121.203 384.195 123.661 382.966C126.119 381.681 128.744 381.039 131.537 381.039C133.659 381.039 135.726 381.346 137.737 381.961C139.804 382.519 141.619 383.217 143.183 384.055L144.356 384.558L147.791 378.274L146.618 377.604C141.871 374.867 136.76 373.498 131.285 373.498C126.314 373.498 121.985 374.587 118.298 376.766C114.668 378.944 111.903 381.821 110.003 385.396C108.104 388.971 107.155 392.825 107.155 396.959C107.155 400.924 108.048 404.723 109.836 408.354C111.623 411.984 114.332 414.973 117.963 417.319C121.594 419.609 126.035 420.754 131.285 420.754C138.659 420.587 144.384 418.743 148.462 415.224V394.277H128.353ZM173.118 420.754C178.704 420.754 182.866 419.777 185.603 417.822C188.396 415.866 190.155 413.66 190.881 411.202C191.663 408.745 192.054 406.119 192.054 403.326V373.917H183.843V402.907C183.843 404.36 183.759 405.672 183.592 406.845C183.033 408.856 181.86 410.42 180.073 411.537C178.285 412.599 175.967 413.129 173.118 413.129C170.381 413.129 168.119 412.599 166.332 411.537C164.544 410.42 163.399 408.856 162.896 406.845C162.617 405.561 162.477 404.248 162.477 402.907V373.917H154.35V403.326C154.35 406.119 154.713 408.745 155.439 411.202C156.221 413.66 157.981 415.866 160.718 417.822C163.511 419.777 167.644 420.754 173.118 420.754ZM199.417 420H207.628V401.986C209.304 402.097 210.533 402.153 211.315 402.153C212.879 402.153 214.08 402.125 214.917 402.07L225.475 420H234.775L223.212 400.729C230.027 398.439 233.434 394.026 233.434 387.491C233.434 378.442 227.122 373.917 214.499 373.917H199.417V420ZM213.661 381.29C217.236 381.29 220.028 381.737 222.039 382.631C224.106 383.469 225.14 385.145 225.14 387.658C225.14 390.563 223.939 392.49 221.537 393.439C219.191 394.333 215.895 394.78 211.65 394.78C210.365 394.78 209.024 394.696 207.628 394.529V381.29H213.661ZM260.374 373.331C256.129 373.331 252.275 374.336 248.812 376.347C245.348 378.302 242.611 381.067 240.601 384.642C238.59 388.217 237.584 392.322 237.584 396.959C237.584 401.93 238.646 406.203 240.768 409.778C242.891 413.353 245.656 416.062 249.063 417.905C252.526 419.693 256.213 420.587 260.123 420.587C264.48 420.587 268.39 419.581 271.853 417.57C275.372 415.503 278.109 412.655 280.064 409.024C282.075 405.337 283.081 401.176 283.081 396.54C283.081 391.903 282.075 387.826 280.064 384.307C278.053 380.788 275.316 378.078 271.853 376.179C268.446 374.28 264.62 373.331 260.374 373.331ZM260.039 380.955C262.441 380.955 264.759 381.514 266.994 382.631C269.228 383.748 271.071 385.508 272.523 387.909C273.976 390.311 274.702 393.328 274.702 396.959C274.702 400.533 274.032 403.522 272.691 405.924C271.35 408.326 269.591 410.085 267.412 411.202C265.29 412.32 263.028 412.878 260.626 412.878C257.889 412.878 255.403 412.208 253.169 410.867C250.934 409.527 249.175 407.627 247.89 405.17C246.605 402.656 245.963 399.751 245.963 396.456C245.963 392.937 246.633 390.032 247.974 387.742C249.314 385.396 251.046 383.692 253.169 382.631C255.291 381.514 257.581 380.955 260.039 380.955ZM306.525 381.207C308.48 381.207 310.351 381.43 312.139 381.877C313.982 382.268 315.965 382.882 318.088 383.72L320.769 376.263L319.847 375.928C317.892 375.258 315.881 374.699 313.815 374.252C311.748 373.749 309.234 373.498 306.274 373.498C302.81 373.498 299.766 374.057 297.141 375.174C294.516 376.291 292.505 377.827 291.108 379.782C289.712 381.737 289.014 383.971 289.014 386.485C289.014 389.334 289.74 391.68 291.192 393.523C292.644 395.311 294.404 396.679 296.471 397.629C298.537 398.578 301.163 399.556 304.347 400.561C307.698 401.567 310.128 402.516 311.636 403.41C313.144 404.248 313.87 405.505 313.815 407.181C313.815 408.912 312.893 410.309 311.05 411.37C309.206 412.375 306.776 412.878 303.76 412.878C300.464 412.878 296.275 411.928 291.192 410.029L289.935 409.527L287.17 416.984L288.259 417.486C291.164 418.604 293.706 419.441 295.884 420C298.063 420.503 300.464 420.754 303.09 420.754C307.558 420.754 311.217 420.112 314.066 418.827C316.971 417.486 319.065 415.811 320.35 413.8C321.635 411.733 322.277 409.527 322.277 407.181C322.277 404.332 321.523 401.986 320.015 400.142C318.507 398.299 316.691 396.903 314.569 395.953C312.502 395.003 309.849 394.026 306.609 393.021C303.425 392.015 301.079 391.093 299.571 390.256C298.118 389.418 297.392 388.273 297.392 386.82C297.392 385.089 298.202 383.72 299.822 382.715C301.442 381.709 303.676 381.207 306.525 381.207Z" fill="#9BB4C6"/>
</svg>
